<svg width="169" height="46" viewBox="0 0 169 46" fill="none" xmlns="http://www.w3.org/2000/svg">
<path d="M0 0H169V45.1872H0V0Z" fill="white"/>
<path d="M25.7085 13.1785V15.9344H17.5017V21.4464H24.4282V24.2152H17.5017V31.8005H14.0321V13.1785H25.7085Z" fill="#313131"/>
<path d="M42.8077 31.8005H40.1447C39.8459 31.8005 39.5984 31.7276 39.4021 31.5816C39.2143 31.4271 39.0778 31.2382 38.9924 31.015L37.6097 27.2159H29.9407L28.5579 31.015C28.4897 31.2124 28.3531 31.3927 28.1482 31.5559C27.9519 31.719 27.7087 31.8005 27.4185 31.8005H24.7426L32.0148 13.1785H35.5356L42.8077 31.8005ZM30.8241 24.769H36.7263L34.4729 18.5745C34.3705 18.2998 34.2553 17.9778 34.1273 17.6086C34.0078 17.2308 33.8883 16.823 33.7688 16.3852C33.6493 16.823 33.5298 17.2308 33.4103 17.6086C33.2993 17.9864 33.1884 18.3169 33.0774 18.6002L30.8241 24.769Z" fill="#313131"/>
<path d="M60.3341 31.8005H56.8644V23.6614H48.184V31.8005H44.7144V13.1785H48.184V21.1888H56.8644V13.1785H60.3341V31.8005Z" fill="#313131"/>
<path d="M80.3416 31.8005H77.6786C77.3798 31.8005 77.1323 31.7276 76.936 31.5816C76.7482 31.4271 76.6117 31.2382 76.5263 31.015L75.1436 27.2159H67.4746L66.0918 31.015C66.0235 31.2124 65.887 31.3927 65.6821 31.5559C65.4858 31.719 65.2426 31.8005 64.9524 31.8005H62.2765L69.5487 13.1785H73.0695L80.3416 31.8005ZM68.358 24.769H74.2602L72.0068 18.5745C71.9044 18.2998 71.7892 17.9778 71.6611 17.6086C71.5417 17.2308 71.4222 16.823 71.3027 16.3852C71.1832 16.823 71.0637 17.2308 70.9442 17.6086C70.8332 17.9864 70.7223 18.3169 70.6113 18.6002L68.358 24.769Z" fill="#313131"/>
<path d="M82.2483 31.8005V13.1785H88.637C89.849 13.1785 90.8818 13.2944 91.7353 13.5262C92.5974 13.758 93.3015 14.0885 93.8478 14.5178C94.4026 14.9471 94.808 15.4665 95.0641 16.0761C95.3202 16.6857 95.4482 17.3725 95.4482 18.1366C95.4482 18.5745 95.3842 18.9952 95.2561 19.3987C95.1281 19.7936 94.9275 20.1671 94.6544 20.5191C94.3898 20.8625 94.0484 21.1759 93.6302 21.4592C93.2205 21.7426 92.7297 21.983 92.1578 22.1804C94.7013 22.7557 95.9731 24.1379 95.9731 26.3273C95.9731 27.1171 95.8237 27.8469 95.525 28.5166C95.2263 29.1862 94.791 29.7658 94.2191 30.2551C93.6472 30.7359 92.9431 31.1137 92.1066 31.3884C91.2701 31.6632 90.3142 31.8005 89.2387 31.8005H82.2483ZM85.6923 23.6357V29.0961H89.1875C89.8277 29.0961 90.3611 29.0188 90.7879 28.8643C91.2232 28.7097 91.5689 28.5037 91.8249 28.2461C92.0895 27.9886 92.2773 27.6881 92.3883 27.3446C92.5078 27.0012 92.5675 26.6363 92.5675 26.25C92.5675 25.8465 92.5035 25.4859 92.3755 25.1682C92.2474 24.842 92.0468 24.5672 91.7737 24.344C91.5006 24.1122 91.1506 23.9362 90.7239 23.816C90.2971 23.6958 89.7807 23.6357 89.1747 23.6357H85.6923ZM85.6923 21.2403H88.4449C89.6143 21.2403 90.5019 21.0257 91.108 20.5964C91.714 20.1671 92.017 19.4846 92.017 18.5487C92.017 17.5786 91.7438 16.8874 91.1976 16.4753C90.6513 16.0632 89.7978 15.8572 88.637 15.8572H85.6923V21.2403Z" fill="#313131"/>
<path d="M116.685 22.4895C116.685 23.8546 116.459 25.121 116.006 26.2886C115.554 27.4477 114.918 28.4522 114.099 29.3022C113.279 30.1521 112.294 30.8175 111.141 31.2983C109.989 31.7705 108.713 32.0066 107.313 32.0066C105.913 32.0066 104.633 31.7705 103.472 31.2983C102.32 30.8175 101.33 30.1521 100.502 29.3022C99.6826 28.4522 99.0467 27.4477 98.5943 26.2886C98.1419 25.121 97.9158 23.8546 97.9158 22.4895C97.9158 21.1244 98.1419 19.8623 98.5943 18.7033C99.0467 17.5356 99.6826 16.5268 100.502 15.6769C101.33 14.8269 102.32 14.1658 103.472 13.6936C104.633 13.2128 105.913 12.9724 107.313 12.9724C108.713 12.9724 109.989 13.2128 111.141 13.6936C112.294 14.1744 113.279 14.8398 114.099 15.6897C114.918 16.5311 115.554 17.5356 116.006 18.7033C116.459 19.8623 116.685 21.1244 116.685 22.4895ZM113.151 22.4895C113.151 21.4678 113.015 20.5535 112.742 19.7464C112.477 18.9308 112.093 18.2397 111.589 17.673C111.086 17.1064 110.471 16.6728 109.746 16.3723C109.029 16.0718 108.218 15.9216 107.313 15.9216C106.408 15.9216 105.593 16.0718 104.868 16.3723C104.142 16.6728 103.523 17.1064 103.011 17.673C102.508 18.2397 102.119 18.9308 101.846 19.7464C101.573 20.5535 101.437 21.4678 101.437 22.4895C101.437 23.5112 101.573 24.4298 101.846 25.2455C102.119 26.0525 102.508 26.7394 103.011 27.306C103.523 27.8641 104.142 28.2933 104.868 28.5938C105.593 28.8943 106.408 29.0446 107.313 29.0446C108.218 29.0446 109.029 28.8943 109.746 28.5938C110.471 28.2933 111.086 27.8641 111.589 27.306C112.093 26.7394 112.477 26.0525 112.742 25.2455C113.015 24.4298 113.151 23.5112 113.151 22.4895Z" fill="#313131"/>
<path d="M129.329 16.5655C129.236 16.7544 129.125 16.8874 128.997 16.9647C128.877 17.042 128.732 17.0806 128.561 17.0806C128.391 17.0806 128.198 17.0162 127.985 16.8874C127.772 16.7501 127.52 16.5998 127.23 16.4367C126.94 16.2736 126.598 16.1276 126.205 15.9988C125.821 15.8615 125.365 15.7928 124.836 15.7928C124.358 15.7928 123.939 15.8529 123.581 15.9731C123.231 16.0847 122.932 16.2435 122.685 16.4496C122.446 16.6556 122.266 16.9046 122.147 17.1965C122.027 17.4798 121.968 17.7932 121.968 18.1366C121.968 18.5745 122.087 18.9394 122.326 19.2313C122.574 19.5232 122.898 19.7722 123.299 19.9782C123.7 20.1843 124.157 20.3689 124.669 20.532C125.181 20.6951 125.702 20.8711 126.231 21.06C126.769 21.2403 127.294 21.4549 127.806 21.7039C128.318 21.9443 128.775 22.2534 129.176 22.6312C129.577 23.0003 129.897 23.4554 130.136 23.9963C130.384 24.5372 130.507 25.194 130.507 25.9667C130.507 26.808 130.362 27.5979 130.072 28.3363C129.79 29.066 129.372 29.7057 128.817 30.2551C128.271 30.796 127.601 31.2253 126.807 31.543C126.013 31.8521 125.104 32.0066 124.08 32.0066C123.491 32.0066 122.911 31.9465 122.339 31.8263C121.767 31.7147 121.217 31.5516 120.687 31.3369C120.167 31.1223 119.676 30.8647 119.215 30.5642C118.763 30.2637 118.357 29.9289 117.999 29.5597L118.997 27.8984C119.091 27.7782 119.202 27.6795 119.33 27.6022C119.467 27.5164 119.616 27.4734 119.778 27.4734C119.992 27.4734 120.222 27.5636 120.47 27.7439C120.717 27.9156 121.007 28.1088 121.34 28.3234C121.682 28.538 122.079 28.7355 122.531 28.9158C122.992 29.0875 123.542 29.1734 124.183 29.1734C125.164 29.1734 125.924 28.9416 126.462 28.4779C126.999 28.0057 127.268 27.3318 127.268 26.456C127.268 25.9667 127.144 25.5674 126.897 25.2584C126.658 24.9493 126.338 24.6917 125.937 24.4857C125.535 24.271 125.079 24.0907 124.567 23.9448C124.055 23.7988 123.534 23.64 123.005 23.4683C122.476 23.2965 121.955 23.0905 121.443 22.8501C120.931 22.6097 120.474 22.2963 120.073 21.91C119.672 21.5236 119.347 21.0428 119.1 20.4676C118.861 19.8838 118.741 19.1669 118.741 18.3169C118.741 17.6387 118.874 16.9776 119.138 16.3337C119.411 15.6897 119.804 15.1188 120.316 14.6208C120.837 14.1229 121.473 13.7236 122.224 13.4232C122.975 13.1227 123.833 12.9724 124.797 12.9724C125.89 12.9724 126.897 13.1441 127.819 13.4875C128.74 13.831 129.526 14.3118 130.174 14.9299L129.329 16.5655Z" fill="#313131"/>
<path d="M150.893 22.4895C150.893 23.8546 150.667 25.121 150.215 26.2886C149.762 27.4477 149.126 28.4522 148.307 29.3022C147.488 30.1521 146.502 30.8175 145.349 31.2983C144.197 31.7705 142.921 32.0066 141.521 32.0066C140.121 32.0066 138.841 31.7705 137.68 31.2983C136.528 30.8175 135.538 30.1521 134.71 29.3022C133.891 28.4522 133.255 27.4477 132.802 26.2886C132.35 25.121 132.124 23.8546 132.124 22.4895C132.124 21.1244 132.35 19.8623 132.802 18.7033C133.255 17.5356 133.891 16.5268 134.71 15.6769C135.538 14.8269 136.528 14.1658 137.68 13.6936C138.841 13.2128 140.121 12.9724 141.521 12.9724C142.921 12.9724 144.197 13.2128 145.349 13.6936C146.502 14.1744 147.488 14.8398 148.307 15.6897C149.126 16.5311 149.762 17.5356 150.215 18.7033C150.667 19.8623 150.893 21.1244 150.893 22.4895ZM147.359 22.4895C147.359 21.4678 147.223 20.5535 146.95 19.7464C146.685 18.9308 146.301 18.2397 145.798 17.673C145.294 17.1064 144.679 16.6728 143.954 16.3723C143.237 16.0718 142.426 15.9216 141.521 15.9216C140.617 15.9216 139.801 16.0718 139.076 16.3723C138.35 16.6728 137.732 17.1064 137.219 17.673C136.716 18.2397 136.328 18.9308 136.054 19.7464C135.781 20.5535 135.645 21.4678 135.645 22.4895C135.645 23.5112 135.781 24.4298 136.054 25.2455C136.328 26.0525 136.716 26.7394 137.219 27.306C137.732 27.8641 138.35 28.2933 139.076 28.5938C139.801 28.8943 140.617 29.0446 141.521 29.0446C142.426 29.0446 143.237 28.8943 143.954 28.5938C144.679 28.2933 145.294 27.8641 145.798 27.306C146.301 26.7394 146.685 26.0525 146.95 25.2455C147.223 24.4298 147.359 23.5112 147.359 22.4895Z" fill="#313131"/>
<path d="M152.005 30.0491C152.005 29.7829 152.052 29.5297 152.146 29.2893C152.249 29.0489 152.385 28.8428 152.556 28.6711C152.735 28.4994 152.944 28.362 153.183 28.259C153.422 28.156 153.678 28.1045 153.951 28.1045C154.216 28.1045 154.468 28.156 154.707 28.259C154.946 28.362 155.151 28.4994 155.321 28.6711C155.492 28.8428 155.629 29.0489 155.731 29.2893C155.833 29.5297 155.885 29.7829 155.885 30.0491C155.885 30.3238 155.833 30.5814 155.731 30.8218C155.629 31.0536 155.492 31.2554 155.321 31.4271C155.151 31.5988 154.946 31.7319 154.707 31.8263C154.468 31.9293 154.216 31.9808 153.951 31.9808C153.678 31.9808 153.422 31.9293 153.183 31.8263C152.944 31.7319 152.735 31.5988 152.556 31.4271C152.385 31.2554 152.249 31.0536 152.146 30.8218C152.052 30.5814 152.005 30.3238 152.005 30.0491Z" fill="#313131"/>
</svg>
