<svg width="169" height="46" viewBox="0 0 169 46" fill="none" xmlns="http://www.w3.org/2000/svg">
<path d="M0 0H169V45.1872H0V0Z" fill="#313131"/>
<path d="M25.7085 13.1784V15.9343H17.5017V21.4463H24.4282V24.2151H17.5017V31.8005H14.0321V13.1784H25.7085Z" fill="white"/>
<path d="M42.8077 31.8005H40.1447C39.8459 31.8005 39.5984 31.7275 39.4021 31.5815C39.2143 31.427 39.0778 31.2381 38.9924 31.0149L37.6097 27.2158H29.9407L28.5579 31.0149C28.4897 31.2123 28.3531 31.3926 28.1482 31.5558C27.9519 31.7189 27.7087 31.8005 27.4185 31.8005H24.7426L32.0148 13.1784H35.5356L42.8077 31.8005ZM30.8241 24.7689H36.7263L34.4729 18.5744C34.3705 18.2997 34.2553 17.9777 34.1273 17.6085C34.0078 17.2308 33.8883 16.8229 33.7688 16.3851C33.6493 16.8229 33.5298 17.2308 33.4103 17.6085C33.2993 17.9863 33.1884 18.3168 33.0774 18.6002L30.8241 24.7689Z" fill="white"/>
<path d="M60.3341 31.8005H56.8644V23.6613H48.184V31.8005H44.7144V13.1784H48.184V21.1887H56.8644V13.1784H60.3341V31.8005Z" fill="white"/>
<path d="M80.3416 31.8005H77.6786C77.3798 31.8005 77.1323 31.7275 76.936 31.5815C76.7482 31.427 76.6117 31.2381 76.5263 31.0149L75.1436 27.2158H67.4746L66.0918 31.0149C66.0235 31.2123 65.887 31.3926 65.6821 31.5558C65.4858 31.7189 65.2426 31.8005 64.9524 31.8005H62.2765L69.5487 13.1784H73.0695L80.3416 31.8005ZM68.358 24.7689H74.2602L72.0068 18.5744C71.9044 18.2997 71.7892 17.9777 71.6611 17.6085C71.5417 17.2308 71.4222 16.8229 71.3027 16.3851C71.1832 16.8229 71.0637 17.2308 70.9442 17.6085C70.8332 17.9863 70.7223 18.3168 70.6113 18.6002L68.358 24.7689Z" fill="white"/>
<path d="M82.2483 31.8005V13.1784H88.637C89.849 13.1784 90.8818 13.2943 91.7353 13.5261C92.5974 13.7579 93.3015 14.0884 93.8478 14.5177C94.4026 14.947 94.808 15.4664 95.0641 16.076C95.3202 16.6856 95.4482 17.3724 95.4482 18.1365C95.4482 18.5744 95.3842 18.9951 95.2561 19.3986C95.1281 19.7935 94.9275 20.167 94.6544 20.519C94.3898 20.8625 94.0484 21.1758 93.6302 21.4591C93.2205 21.7425 92.7297 21.9829 92.1578 22.1803C94.7013 22.7556 95.9731 24.1378 95.9731 26.3272C95.9731 27.117 95.8237 27.8468 95.525 28.5165C95.2263 29.1862 94.791 29.7657 94.2191 30.2551C93.6472 30.7358 92.9431 31.1136 92.1066 31.3884C91.2701 31.6631 90.3142 31.8005 89.2387 31.8005H82.2483ZM85.6923 23.6356V29.096H89.1875C89.8277 29.096 90.3611 29.0187 90.7879 28.8642C91.2232 28.7097 91.5689 28.5036 91.8249 28.246C92.0895 27.9885 92.2773 27.688 92.3883 27.3446C92.5078 27.0011 92.5675 26.6362 92.5675 26.2499C92.5675 25.8464 92.5035 25.4858 92.3755 25.1681C92.2474 24.8419 92.0468 24.5671 91.7737 24.3439C91.5006 24.1121 91.1506 23.9361 90.7239 23.8159C90.2971 23.6957 89.7807 23.6356 89.1747 23.6356H85.6923ZM85.6923 21.2402H88.4449C89.6143 21.2402 90.5019 21.0256 91.108 20.5963C91.714 20.167 92.017 19.4845 92.017 18.5486C92.017 17.5785 91.7438 16.8873 91.1976 16.4752C90.6513 16.0631 89.7978 15.8571 88.637 15.8571H85.6923V21.2402Z" fill="white"/>
<path d="M116.685 22.4894C116.685 23.8545 116.459 25.1209 116.006 26.2885C115.554 27.4476 114.918 28.4521 114.099 29.3021C113.279 30.152 112.294 30.8174 111.141 31.2982C109.989 31.7704 108.713 32.0065 107.313 32.0065C105.913 32.0065 104.633 31.7704 103.472 31.2982C102.32 30.8174 101.33 30.152 100.502 29.3021C99.6826 28.4521 99.0467 27.4476 98.5943 26.2885C98.1419 25.1209 97.9158 23.8545 97.9158 22.4894C97.9158 21.1243 98.1419 19.8622 98.5943 18.7032C99.0467 17.5355 99.6826 16.5267 100.502 15.6768C101.33 14.8268 102.32 14.1657 103.472 13.6935C104.633 13.2127 105.913 12.9723 107.313 12.9723C108.713 12.9723 109.989 13.2127 111.141 13.6935C112.294 14.1743 113.279 14.8397 114.099 15.6897C114.918 16.531 115.554 17.5355 116.006 18.7032C116.459 19.8622 116.685 21.1243 116.685 22.4894ZM113.151 22.4894C113.151 21.4677 113.015 20.5534 112.742 19.7463C112.477 18.9307 112.093 18.2396 111.589 17.6729C111.086 17.1063 110.471 16.6727 109.746 16.3722C109.029 16.0717 108.218 15.9215 107.313 15.9215C106.408 15.9215 105.593 16.0717 104.868 16.3722C104.142 16.6727 103.523 17.1063 103.011 17.6729C102.508 18.2396 102.119 18.9307 101.846 19.7463C101.573 20.5534 101.437 21.4677 101.437 22.4894C101.437 23.5111 101.573 24.4298 101.846 25.2454C102.119 26.0524 102.508 26.7393 103.011 27.3059C103.523 27.864 104.142 28.2933 104.868 28.5938C105.593 28.8942 106.408 29.0445 107.313 29.0445C108.218 29.0445 109.029 28.8942 109.746 28.5938C110.471 28.2933 111.086 27.864 111.589 27.3059C112.093 26.7393 112.477 26.0524 112.742 25.2454C113.015 24.4298 113.151 23.5111 113.151 22.4894Z" fill="white"/>
<path d="M129.329 16.5654C129.236 16.7543 129.125 16.8873 128.997 16.9646C128.877 17.0419 128.732 17.0805 128.561 17.0805C128.391 17.0805 128.198 17.0161 127.985 16.8873C127.772 16.75 127.52 16.5997 127.23 16.4366C126.94 16.2735 126.598 16.1275 126.205 15.9987C125.821 15.8614 125.365 15.7927 124.836 15.7927C124.358 15.7927 123.939 15.8528 123.581 15.973C123.231 16.0846 122.932 16.2434 122.685 16.4495C122.446 16.6555 122.266 16.9045 122.147 17.1964C122.027 17.4797 121.968 17.7931 121.968 18.1365C121.968 18.5744 122.087 18.9393 122.326 19.2312C122.574 19.5231 122.898 19.7721 123.299 19.9781C123.7 20.1842 124.157 20.3688 124.669 20.5319C125.181 20.695 125.702 20.871 126.231 21.0599C126.769 21.2402 127.294 21.4549 127.806 21.7038C128.318 21.9442 128.775 22.2533 129.176 22.6311C129.577 23.0003 129.897 23.4553 130.136 23.9962C130.384 24.5371 130.507 25.1939 130.507 25.9666C130.507 26.808 130.362 27.5978 130.072 28.3362C129.79 29.066 129.372 29.7056 128.817 30.2551C128.271 30.7959 127.601 31.2252 126.807 31.5429C126.013 31.852 125.104 32.0065 124.08 32.0065C123.491 32.0065 122.911 31.9464 122.339 31.8262C121.767 31.7146 121.217 31.5515 120.687 31.3368C120.167 31.1222 119.676 30.8646 119.215 30.5641C118.763 30.2636 118.357 29.9288 117.999 29.5596L118.997 27.8983C119.091 27.7781 119.202 27.6794 119.33 27.6021C119.467 27.5163 119.616 27.4733 119.778 27.4733C119.992 27.4733 120.222 27.5635 120.47 27.7438C120.717 27.9155 121.007 28.1087 121.34 28.3233C121.682 28.5379 122.079 28.7354 122.531 28.9157C122.992 29.0874 123.542 29.1733 124.183 29.1733C125.164 29.1733 125.924 28.9415 126.462 28.4778C126.999 28.0056 127.268 27.3317 127.268 26.4559C127.268 25.9666 127.144 25.5673 126.897 25.2583C126.658 24.9492 126.338 24.6916 125.937 24.4856C125.535 24.2709 125.079 24.0906 124.567 23.9447C124.055 23.7987 123.534 23.6399 123.005 23.4682C122.476 23.2965 121.955 23.0904 121.443 22.85C120.931 22.6096 120.474 22.2962 120.073 21.9099C119.672 21.5235 119.347 21.0427 119.1 20.4675C118.861 19.8837 118.741 19.1668 118.741 18.3168C118.741 17.6386 118.874 16.9775 119.138 16.3336C119.411 15.6896 119.804 15.1187 120.316 14.6207C120.837 14.1228 121.473 13.7236 122.224 13.4231C122.975 13.1226 123.833 12.9723 124.797 12.9723C125.89 12.9723 126.897 13.144 127.819 13.4875C128.74 13.8309 129.526 14.3117 130.174 14.9298L129.329 16.5654Z" fill="white"/>
<path d="M150.893 22.4894C150.893 23.8545 150.667 25.1209 150.215 26.2885C149.762 27.4476 149.126 28.4521 148.307 29.3021C147.488 30.152 146.502 30.8174 145.349 31.2982C144.197 31.7704 142.921 32.0065 141.521 32.0065C140.121 32.0065 138.841 31.7704 137.68 31.2982C136.528 30.8174 135.538 30.152 134.71 29.3021C133.891 28.4521 133.255 27.4476 132.802 26.2885C132.35 25.1209 132.124 23.8545 132.124 22.4894C132.124 21.1243 132.35 19.8622 132.802 18.7032C133.255 17.5355 133.891 16.5267 134.71 15.6768C135.538 14.8268 136.528 14.1657 137.68 13.6935C138.841 13.2127 140.121 12.9723 141.521 12.9723C142.921 12.9723 144.197 13.2127 145.349 13.6935C146.502 14.1743 147.488 14.8397 148.307 15.6897C149.126 16.531 149.762 17.5355 150.215 18.7032C150.667 19.8622 150.893 21.1243 150.893 22.4894ZM147.359 22.4894C147.359 21.4677 147.223 20.5534 146.95 19.7463C146.685 18.9307 146.301 18.2396 145.798 17.6729C145.294 17.1063 144.679 16.6727 143.954 16.3722C143.237 16.0717 142.426 15.9215 141.521 15.9215C140.617 15.9215 139.801 16.0717 139.076 16.3722C138.35 16.6727 137.732 17.1063 137.219 17.6729C136.716 18.2396 136.328 18.9307 136.054 19.7463C135.781 20.5534 135.645 21.4677 135.645 22.4894C135.645 23.5111 135.781 24.4298 136.054 25.2454C136.328 26.0524 136.716 26.7393 137.219 27.3059C137.732 27.864 138.35 28.2933 139.076 28.5938C139.801 28.8942 140.617 29.0445 141.521 29.0445C142.426 29.0445 143.237 28.8942 143.954 28.5938C144.679 28.2933 145.294 27.864 145.798 27.3059C146.301 26.7393 146.685 26.0524 146.95 25.2454C147.223 24.4298 147.359 23.5111 147.359 22.4894Z" fill="white"/>
<path d="M152.005 30.049C152.005 29.7829 152.052 29.5296 152.146 29.2892C152.249 29.0488 152.385 28.8427 152.556 28.671C152.735 28.4993 152.944 28.3619 153.183 28.2589C153.422 28.1559 153.678 28.1044 153.951 28.1044C154.216 28.1044 154.468 28.1559 154.707 28.2589C154.946 28.3619 155.151 28.4993 155.321 28.671C155.492 28.8427 155.629 29.0488 155.731 29.2892C155.833 29.5296 155.885 29.7829 155.885 30.049C155.885 30.3237 155.833 30.5813 155.731 30.8217C155.629 31.0535 155.492 31.2553 155.321 31.427C155.151 31.5987 154.946 31.7318 154.707 31.8262C154.468 31.9292 154.216 31.9808 153.951 31.9808C153.678 31.9808 153.422 31.9292 153.183 31.8262C152.944 31.7318 152.735 31.5987 152.556 31.427C152.385 31.2553 152.249 31.0535 152.146 30.8217C152.052 30.5813 152.005 30.3237 152.005 30.049Z" fill="white"/>
</svg>
